# Blender v3.1.2 OBJ File: 'SlotWheel.blend'
# www.blender.org
o Wheel1_Cylinder
v -0.055245 -0.310771 -0.040284
v 0.055245 -0.310771 -0.040284
v 0.055245 -0.310608 0.041522
v -0.055245 -0.310608 0.041522
v 0.055245 -0.289277 0.120499
v -0.055245 -0.289277 0.120499
v 0.055245 -0.248233 0.191263
v -0.055245 -0.248233 0.191263
v 0.055245 -0.190272 0.248993
v -0.055245 -0.190272 0.248993
v 0.055245 -0.119344 0.289755
v -0.055245 -0.119344 0.289755
v 0.055245 -0.040284 0.310771
v -0.055245 -0.040284 0.310771
v 0.055245 0.041523 0.310607
v -0.055245 0.041523 0.310607
v 0.055245 0.120499 0.289277
v -0.055245 0.120499 0.289277
v 0.055245 0.191263 0.248233
v -0.055245 0.191263 0.248233
v 0.055245 0.248994 0.190272
v -0.055245 0.248994 0.190272
v 0.055245 0.289756 0.119344
v -0.055245 0.289756 0.119344
v 0.055245 0.310771 0.040283
v -0.055245 0.310771 0.040283
v 0.055245 0.310608 -0.041523
v -0.055245 0.310608 -0.041523
v 0.055245 0.289277 -0.120499
v -0.055245 0.289277 -0.120499
v 0.055245 0.248233 -0.191264
v -0.055245 0.248233 -0.191264
v 0.055245 0.190272 -0.248994
v -0.055245 0.190272 -0.248994
v 0.055245 0.119344 -0.289756
v -0.055245 0.119344 -0.289756
v 0.055245 0.040284 -0.310771
v -0.055245 0.040284 -0.310771
v 0.055245 -0.041522 -0.310608
v -0.055245 -0.041522 -0.310608
v 0.055245 -0.120499 -0.289278
v -0.055245 -0.120499 -0.289278
v 0.055245 -0.191263 -0.248233
v -0.055245 -0.191263 -0.248233
v 0.055245 -0.248994 -0.190273
v -0.055245 -0.248994 -0.190273
v 0.055245 -0.289755 -0.119345
v -0.055245 -0.289755 -0.119345
vt 0.263081 0.000266
vt 0.705380 0.000266
vt 0.705380 0.041910
vt 0.263081 0.041910
vt 0.705380 0.083555
vt 0.263081 0.083555
vt 0.705380 0.125200
vt 0.263081 0.125200
vt 0.705380 0.166844
vt 0.263081 0.166844
vt 0.705380 0.208489
vt 0.263081 0.208489
vt 0.705380 0.250133
vt 0.263081 0.250133
vt 0.705381 0.291777
vt 0.263081 0.291777
vt 0.705381 0.333422
vt 0.263081 0.333422
vt 0.705381 0.375066
vt 0.263081 0.375066
vt 0.705381 0.416711
vt 0.263081 0.416711
vt 0.705381 0.458356
vt 0.263081 0.458356
vt 0.705381 0.500000
vt 0.263081 0.500000
vt 0.705381 0.541644
vt 0.263081 0.541644
vt 0.705381 0.583289
vt 0.263081 0.583289
vt 0.705381 0.624933
vt 0.263081 0.624933
vt 0.705381 0.666578
vt 0.263081 0.666578
vt 0.705381 0.708222
vt 0.263081 0.708222
vt 0.705381 0.749867
vt 0.263081 0.749867
vt 0.705381 0.791512
vt 0.263081 0.791512
vt 0.705381 0.833156
vt 0.263081 0.833156
vt 0.705381 0.874801
vt 0.263081 0.874801
vt 0.705381 0.916445
vt 0.263081 0.916445
vt 0.705381 0.958089
vt 0.263081 0.958089
vt 0.705381 0.999734
vt 0.263081 0.999734
vn 0.0000 -0.9917 -0.1286
vn 0.0000 -0.9912 0.1325
vn 0.0000 -0.9231 0.3845
vn 0.0000 -0.7921 0.6103
vn 0.0000 -0.6072 0.7946
vn 0.0000 -0.3808 0.9246
vn 0.0000 -0.1285 0.9917
vn 0.0000 0.1325 0.9912
vn 0.0000 0.3845 0.9231
vn 0.0000 0.6103 0.7921
vn 0.0000 0.7946 0.6072
vn 0.0000 0.9246 0.3808
vn 0.0000 0.9917 0.1285
vn 0.0000 0.9912 -0.1325
vn 0.0000 0.9231 -0.3845
vn 0.0000 0.7921 -0.6103
vn 0.0000 0.6072 -0.7946
vn 0.0000 0.3808 -0.9246
vn 0.0000 0.1285 -0.9917
vn 0.0000 -0.1325 -0.9912
vn 0.0000 -0.3845 -0.9231
vn 0.0000 -0.6103 -0.7921
vn 0.0000 -0.7946 -0.6072
vn 0.0000 -0.9246 -0.3808
s 1
f 1/1/1 2/2/1 3/3/2 4/4/2
f 4/4/2 3/3/2 5/5/3 6/6/3
f 6/6/3 5/5/3 7/7/4 8/8/4
f 8/8/4 7/7/4 9/9/5 10/10/5
f 10/10/5 9/9/5 11/11/6 12/12/6
f 12/12/6 11/11/6 13/13/7 14/14/7
f 14/14/7 13/13/7 15/15/8 16/16/8
f 16/16/8 15/15/8 17/17/9 18/18/9
f 18/18/9 17/17/9 19/19/10 20/20/10
f 20/20/10 19/19/10 21/21/11 22/22/11
f 22/22/11 21/21/11 23/23/12 24/24/12
f 24/24/12 23/23/12 25/25/13 26/26/13
f 26/26/13 25/25/13 27/27/14 28/28/14
f 28/28/14 27/27/14 29/29/15 30/30/15
f 30/30/15 29/29/15 31/31/16 32/32/16
f 32/32/16 31/31/16 33/33/17 34/34/17
f 34/34/17 33/33/17 35/35/18 36/36/18
f 36/36/18 35/35/18 37/37/19 38/38/19
f 38/38/19 37/37/19 39/39/20 40/40/20
f 40/40/20 39/39/20 41/41/21 42/42/21
f 42/42/21 41/41/21 43/43/22 44/44/22
f 44/44/22 43/43/22 45/45/23 46/46/23
f 46/46/23 45/45/23 47/47/24 48/48/24
f 48/48/24 47/47/24 2/49/1 1/50/1
