{
    "asset" : {
        "generator" : "Khronos glTF Blender I/O v1.8.19",
        "version" : "2.0"
    },
    "scene" : 0,
    "scenes" : [
        {
            "name" : "Scene",
            "nodes" : [
                0
            ]
        }
    ],
    "nodes" : [
        {
            "mesh" : 0,
            "name" : "PoolTable",
            "rotation" : [
                0.7071068286895752,
                0,
                0,
                0.7071067094802856
            ]
        }
    ],
    "meshes" : [
        {
            "name" : "entertainment_001_Mesh.458",
            "primitives" : [
                {
                    "attributes" : {
                        "POSITION" : 0,
                        "NORMAL" : 1,
                        "TANGENT" : 2,
                        "TEXCOORD_0" : 3
                    },
                    "indices" : 4
                }
            ]
        }
    ],
    "accessors" : [
        {
            "bufferView" : 0,
            "componentType" : 5126,
            "count" : 667,
            "max" : [
                0.7144119739532471,
                1.1561919450759888,
                0
            ],
            "min" : [
                -0.680296003818512,
                -1.2152149677276611,
                -0.6524580121040344
            ],
            "type" : "VEC3"
        },
        {
            "bufferView" : 1,
            "componentType" : 5126,
            "count" : 667,
            "type" : "VEC3"
        },
        {
            "bufferView" : 2,
            "componentType" : 5126,
            "count" : 667,
            "type" : "VEC4"
        },
        {
            "bufferView" : 3,
            "componentType" : 5126,
            "count" : 667,
            "type" : "VEC2"
        },
        {
            "bufferView" : 4,
            "componentType" : 5123,
            "count" : 1587,
            "type" : "SCALAR"
        }
    ],
    "bufferViews" : [
        {
            "buffer" : 0,
            "byteLength" : 8004,
            "byteOffset" : 0
        },
        {
            "buffer" : 0,
            "byteLength" : 8004,
            "byteOffset" : 8004
        },
        {
            "buffer" : 0,
            "byteLength" : 10672,
            "byteOffset" : 16008
        },
        {
            "buffer" : 0,
            "byteLength" : 5336,
            "byteOffset" : 26680
        },
        {
            "buffer" : 0,
            "byteLength" : 3174,
            "byteOffset" : 32016
        }
    ],
    "buffers" : [
        {
            "byteLength" : 35192,
            "uri" : "data:application/octet-stream;base64,"
        }
    ]
}
