{
    "asset" : {
        "generator" : "Khronos glTF Blender I/O v1.8.19",
        "version" : "2.0"
    },
    "scene" : 0,
    "scenes" : [
        {
            "name" : "Scene",
            "nodes" : [
                0
            ]
        }
    ],
    "nodes" : [
        {
            "mesh" : 0,
            "name" : "StatueLightBody",
            "rotation" : [
                0.7071068286895752,
                0,
                0,
                0.7071067094802856
            ],
            "translation" : [
                1.315335750579834,
                0,
                0
            ]
        }
    ],
    "meshes" : [
        {
            "name" : "decoration.017_Mesh.299",
            "primitives" : [
                {
                    "attributes" : {
                        "POSITION" : 0,
                        "NORMAL" : 1,
                        "TANGENT" : 2,
                        "TEXCOORD_0" : 3
                    },
                    "indices" : 4
                }
            ]
        }
    ],
    "accessors" : [
        {
            "bufferView" : 0,
            "componentType" : 5126,
            "count" : 1527,
            "max" : [
                0.38333800435066223,
                0.3139300048351288,
                -0.6258170008659363
            ],
            "min" : [
                -0.38756901025772095,
                -0.24231399595737457,
                -2.4613759517669678
            ],
            "type" : "VEC3"
        },
        {
            "bufferView" : 1,
            "componentType" : 5126,
            "count" : 1527,
            "type" : "VEC3"
        },
        {
            "bufferView" : 2,
            "componentType" : 5126,
            "count" : 1527,
            "type" : "VEC4"
        },
        {
            "bufferView" : 3,
            "componentType" : 5126,
            "count" : 1527,
            "type" : "VEC2"
        },
        {
            "bufferView" : 4,
            "componentType" : 5123,
            "count" : 3168,
            "type" : "SCALAR"
        }
    ],
    "bufferViews" : [
        {
            "buffer" : 0,
            "byteLength" : 18324,
            "byteOffset" : 0
        },
        {
            "buffer" : 0,
            "byteLength" : 18324,
            "byteOffset" : 18324
        },
        {
            "buffer" : 0,
            "byteLength" : 24432,
            "byteOffset" : 36648
        },
        {
            "buffer" : 0,
            "byteLength" : 12216,
            "byteOffset" : 61080
        },
        {
            "buffer" : 0,
            "byteLength" : 6336,
            "byteOffset" : 73296
        }
    ],
    "buffers" : [
        {
            "byteLength" : 79632,
            "uri" : "data:application/octet-stream;base64,"
        }
    ]
}
